# xmcd
#
# Track frame offsets: 
#        150
#        21822
#        36574
#        54399
#        70435
#        81149
#        97525
#        112600
#        137365
#        151766
#
# Disc length: 2391 seconds
#
# Revision: 0
# Processed by: cddbd v1.5.2PL0 Copyright (c) Steve Scherf et al.
# Submitted via: ExactAudioCopyFreeDBPlugin 1.0
#
DISCID=6c09550a
DTITLE=Uli Kron Trio - Bluesology
DYEAR=2002
DGENRE=Blues
TTITLE0=Bluesology (Milt Jackson)
TTITLE1=Second floor boogie
TTITLE2=Lady be good (George and Ira Gershwin)
TTITLE3=Midnite
TTITLE4=October mood
TTITLE5=Things ain't what they used to be (Mercer Ellngton)
TTITLE6=You are my sunshine (Jimmy Davis, C. Mitchell)
TTITLE7=Willow weep for me (Ann Ronell)
TTITLE8=Nina's groove
TTITLE9=Night train (Jimmy Forrest)
EXTD=
EXTT0=
EXTT1=
EXTT2=
EXTT3=
EXTT4=
EXTT5=
EXTT6=
EXTT7=
EXTT8=
EXTT9=
PLAYORDER=
